<?xml version="1.0" encoding="UTF-8" standalone="no"?>
<svg
   viewBox="0 0 630 630"
   version="1.1"
   id="svg1"
   sodipodi:docname="javascript.svg"
   inkscape:version="1.3.2 (091e20e, 2023-11-25)"
   xmlns:inkscape="http://www.inkscape.org/namespaces/inkscape"
   xmlns:sodipodi="http://sodipodi.sourceforge.net/DTD/sodipodi-0.dtd"
   xmlns="http://www.w3.org/2000/svg"
   xmlns:svg="http://www.w3.org/2000/svg">
  <defs
     id="defs1">
    <filter
       style="color-interpolation-filters:sRGB;"
       inkscape:label="Greyscale"
       id="filter1"
       x="0"
       y="0"
       width="1"
       height="1">
      <feColorMatrix
         values="0.21 0.72 0.072 0 0 0.21 0.72 0.072 0 0 0.21 0.72 0.072 0 0 0 0 0 1 0 "
         id="feColorMatrix1" />
    </filter>
    <filter
       style="color-interpolation-filters:sRGB;"
       inkscape:label="Greyscale"
       id="filter2"
       x="0"
       y="0"
       width="1"
       height="1">
      <feColorMatrix
         values="0.21 0.72 0.072 0 0 0.21 0.72 0.072 0 0 0.21 0.72 0.072 0 0 0 0 0 1 0 "
         id="feColorMatrix2" />
    </filter>
  </defs>
  <sodipodi:namedview
     id="namedview1"
     pagecolor="#ffffff"
     bordercolor="#999999"
     borderopacity="1"
     inkscape:showpageshadow="2"
     inkscape:pageopacity="0"
     inkscape:pagecheckerboard="0"
     inkscape:deskcolor="#d1d1d1"
     inkscape:zoom="1.3730159"
     inkscape:cx="315"
     inkscape:cy="314.63584"
     inkscape:window-width="1392"
     inkscape:window-height="1027"
     inkscape:window-x="0"
     inkscape:window-y="25"
     inkscape:window-maximized="0"
     inkscape:current-layer="svg1" />
  <rect
     width="630"
     height="630"
     fill="#f7df1e"
     id="rect1"
     style="filter:url(#filter2)" />
  <path
     d="m423.2 492.19c12.69 20.72 29.2 35.95 58.4 35.95 24.53 0 40.2-12.26 40.2-29.2 0-20.3-16.1-27.49-43.1-39.3l-14.8-6.35c-42.72-18.2-71.1-41-71.1-89.2 0-44.4 33.83-78.2 86.7-78.2 37.64 0 64.7 13.1 84.2 47.4l-46.1 29.6c-10.15-18.2-21.1-25.37-38.1-25.37-17.34 0-28.33 11-28.33 25.37 0 17.76 11 24.95 36.4 35.95l14.8 6.34c50.3 21.57 78.7 43.56 78.7 93 0 53.3-41.87 82.5-98.1 82.5-54.98 0-90.5-26.2-107.88-60.54zm-209.13 5.13c9.3 16.5 17.76 30.45 38.1 30.45 19.45 0 31.72-7.61 31.72-37.2v-201.3h59.2v202.1c0 61.3-35.94 89.2-88.4 89.2-47.4 0-74.85-24.53-88.81-54.075z"
     id="path1"
     style="filter:url(#filter1)" />
</svg>
