<?xml version="1.0" encoding="UTF-8" standalone="no"?>
<svg
   height="1024pt"
   viewBox=".5 -.2 1023 1024.1"
   width="1024pt"
   version="1.1"
   id="svg2"
   sodipodi:docname="nextjs.svg"
   inkscape:version="1.3.2 (091e20e, 2023-11-25)"
   xmlns:inkscape="http://www.inkscape.org/namespaces/inkscape"
   xmlns:sodipodi="http://sodipodi.sourceforge.net/DTD/sodipodi-0.dtd"
   xmlns="http://www.w3.org/2000/svg"
   xmlns:svg="http://www.w3.org/2000/svg">
  <defs
     id="defs2">
    <filter
       style="color-interpolation-filters:sRGB;"
       inkscape:label="Greyscale"
       id="filter19"
       x="0"
       y="0"
       width="1"
       height="1">
      <feColorMatrix
         values="0.21 0.72 0.072 1.80723 0 0.21 0.72 0.072 1.80723 0 0.21 0.72 0.072 1.80723 0 0 0 0 1 0 "
         id="feColorMatrix19"
         result="fbSourceGraphic" />
      <feColorMatrix
         result="fbSourceGraphicAlpha"
         in="fbSourceGraphic"
         values="0 0 0 -1 0 0 0 0 -1 0 0 0 0 -1 0 0 0 0 1 0"
         id="feColorMatrix21" />
      <feColorMatrix
         id="feColorMatrix22"
         values="0.21 0.72 0.072 -0.19 0 0.21 0.72 0.072 -0.19 0 0.21 0.72 0.072 -0.19 0 0 0 0 1 0 "
         in="fbSourceGraphic"
         result="fbSourceGraphic" />
      <feColorMatrix
         result="fbSourceGraphicAlpha"
         in="fbSourceGraphic"
         values="0 0 0 -1 0 0 0 0 -1 0 0 0 0 -1 0 0 0 0 1 0"
         id="feColorMatrix25" />
      <feColorMatrix
         id="feColorMatrix26"
         values="0.21 0.72 0.072 0.01 0 0.21 0.72 0.072 0.01 0 0.21 0.72 0.072 0.01 0 0 0 0 1 0 "
         in="fbSourceGraphic" />
    </filter>
    <filter
       style="color-interpolation-filters:sRGB;"
       inkscape:label="Greyscale"
       id="filter20"
       x="0"
       y="0"
       width="1"
       height="1">
      <feColorMatrix
         values="0.21 0.72 0.072 1.80723 0 0.21 0.72 0.072 1.80723 0 0.21 0.72 0.072 1.80723 0 0 0 0 1 0 "
         id="feColorMatrix20"
         result="fbSourceGraphic" />
      <feColorMatrix
         result="fbSourceGraphicAlpha"
         in="fbSourceGraphic"
         values="0 0 0 -1 0 0 0 0 -1 0 0 0 0 -1 0 0 0 0 1 0"
         id="feColorMatrix23" />
      <feColorMatrix
         id="feColorMatrix24"
         values="0.21 0.72 0.072 -0.19 0 0.21 0.72 0.072 -0.19 0 0.21 0.72 0.072 -0.19 0 0 0 0 1 0 "
         in="fbSourceGraphic"
         result="fbSourceGraphic" />
      <feColorMatrix
         result="fbSourceGraphicAlpha"
         in="fbSourceGraphic"
         values="0 0 0 -1 0 0 0 0 -1 0 0 0 0 -1 0 0 0 0 1 0"
         id="feColorMatrix27" />
      <feColorMatrix
         id="feColorMatrix28"
         values="0.21 0.72 0.072 0.01 0 0.21 0.72 0.072 0.01 0 0.21 0.72 0.072 0.01 0 0 0 0 1 0 "
         in="fbSourceGraphic" />
    </filter>
  </defs>
  <sodipodi:namedview
     id="namedview2"
     pagecolor="#ffffff"
     bordercolor="#999999"
     borderopacity="1"
     inkscape:showpageshadow="2"
     inkscape:pageopacity="0"
     inkscape:pagecheckerboard="0"
     inkscape:deskcolor="#d1d1d1"
     inkscape:document-units="pt"
     inkscape:zoom="0.63354492"
     inkscape:cx="682.66667"
     inkscape:cy="681.87746"
     inkscape:window-width="1392"
     inkscape:window-height="1027"
     inkscape:window-x="0"
     inkscape:window-y="25"
     inkscape:window-maximized="0"
     inkscape:current-layer="svg2" />
  <path
     d="m478.5.6c-2.2.2-9.2.9-15.5 1.4-145.3 13.1-281.4 91.5-367.6 212-48 67-78.7 143-90.3 223.5-4.1 28.1-4.6 36.4-4.6 74.5s.5 46.4 4.6 74.5c27.8 192.1 164.5 353.5 349.9 413.3 33.2 10.7 68.2 18 108 22.4 15.5 1.7 82.5 1.7 98 0 68.7-7.6 126.9-24.6 184.3-53.9 8.8-4.5 10.5-5.7 9.3-6.7-.8-.6-38.3-50.9-83.3-111.7l-81.8-110.5-102.5-151.7c-56.4-83.4-102.8-151.6-103.2-151.6-.4-.1-.8 67.3-1 149.6-.3 144.1-.4 149.9-2.2 153.3-2.6 4.9-4.6 6.9-8.8 9.1-3.2 1.6-6 1.9-21.1 1.9h-17.3l-4.6-2.9c-3-1.9-5.2-4.4-6.7-7.3l-2.1-4.5.2-200.5.3-200.6 3.1-3.9c1.6-2.1 5-4.8 7.4-6.1 4.1-2 5.7-2.2 23-2.2 20.4 0 23.8.8 29.1 6.6 1.5 1.6 57 85.2 123.4 185.9s157.2 238.2 201.8 305.7l81 122.7 4.1-2.7c36.3-23.6 74.7-57.2 105.1-92.2 64.7-74.3 106.4-164.9 120.4-261.5 4.1-28.1 4.6-36.4 4.6-74.5s-.5-46.4-4.6-74.5c-27.8-192.1-164.5-353.5-349.9-413.3-32.7-10.6-67.5-17.9-106.5-22.3-9.6-1-75.7-2.1-84-1.3zm209.4 309.4c4.8 2.4 8.7 7 10.1 11.8.8 2.6 1 58.2.8 183.5l-.3 179.8-31.7-48.6-31.8-48.6v-130.7c0-84.5.4-132 1-134.3 1.6-5.6 5.1-10 9.9-12.6 4.1-2.1 5.6-2.3 21.3-2.3 14.8 0 17.4.2 20.7 2z"
     id="path1"
     style="filter:url(#filter20)" />
  <path
     d="m784.3 945.1c-3.5 2.2-4.6 3.7-1.5 2 2.2-1.3 5.8-4 5.2-4.1-.3 0-2 1-3.7 2.1zm-6.9 4.5c-1.8 1.4-1.8 1.5.4.4 1.2-.6 2.2-1.3 2.2-1.5 0-.8-.5-.6-2.6 1.1zm-5 3c-1.8 1.4-1.8 1.5.4.4 1.2-.6 2.2-1.3 2.2-1.5 0-.8-.5-.6-2.6 1.1zm-5 3c-1.8 1.4-1.8 1.5.4.4 1.2-.6 2.2-1.3 2.2-1.5 0-.8-.5-.6-2.6 1.1zm-7.6 4c-3.8 2-3.6 2.8.2.9 1.7-.9 3-1.8 3-2 0-.7-.1-.6-3.2 1.1z"
     id="path2"
     style="filter:url(#filter19)" />
</svg>
