<?xml version="1.0" encoding="UTF-8" standalone="no"?>
<svg
   width="64"
   height="64"
   viewBox="0 0 6.554 6.555"
   preserveAspectRatio="xMidYMid"
   version="1.1"
   id="svg5"
   sodipodi:docname="sqlite.svg"
   inkscape:version="1.3.2 (091e20e, 2023-11-25)"
   xmlns:inkscape="http://www.inkscape.org/namespaces/inkscape"
   xmlns:sodipodi="http://sodipodi.sourceforge.net/DTD/sodipodi-0.dtd"
   xmlns="http://www.w3.org/2000/svg"
   xmlns:svg="http://www.w3.org/2000/svg">
  <sodipodi:namedview
     id="namedview5"
     pagecolor="#ffffff"
     bordercolor="#999999"
     borderopacity="1"
     inkscape:showpageshadow="2"
     inkscape:pageopacity="0"
     inkscape:pagecheckerboard="0"
     inkscape:deskcolor="#d1d1d1"
     inkscape:zoom="13.515625"
     inkscape:cx="32"
     inkscape:cy="31.963006"
     inkscape:window-width="1392"
     inkscape:window-height="1027"
     inkscape:window-x="0"
     inkscape:window-y="25"
     inkscape:window-maximized="0"
     inkscape:current-layer="svg5" />
  <defs
     id="defs3">
    <linearGradient
       x1="2.983"
       y1=".53"
       x2="2.983"
       y2="4.744"
       id="A"
       gradientUnits="userSpaceOnUse">
      <stop
         stop-color="#97d9f6"
         offset="0%"
         id="stop1" />
      <stop
         stop-color="#0f80cc"
         offset="92.024%"
         id="stop2" />
      <stop
         stop-color="#0f80cc"
         offset="100%"
         id="stop3" />
    </linearGradient>
    <filter
       style="color-interpolation-filters:sRGB;"
       inkscape:label="Greyscale"
       id="filter5"
       x="0"
       y="0"
       width="1"
       height="1">
      <feColorMatrix
         values="0.21 0.72 0.072 0.01 0 0.21 0.72 0.072 0.01 0 0.21 0.72 0.072 0.01 0 0 0 0 1 0 "
         id="feColorMatrix5" />
    </filter>
    <filter
       style="color-interpolation-filters:sRGB;"
       inkscape:label="Greyscale"
       id="filter6"
       x="0"
       y="0"
       width="1"
       height="1">
      <feColorMatrix
         values="0.21 0.72 0.072 0.01 0 0.21 0.72 0.072 0.01 0 0.21 0.72 0.072 0.01 0 0 0 0 1 0 "
         id="feColorMatrix6" />
    </filter>
    <filter
       style="color-interpolation-filters:sRGB;"
       inkscape:label="Greyscale"
       id="filter7"
       x="0"
       y="0"
       width="1"
       height="1">
      <feColorMatrix
         values="0.21 0.72 0.072 0.01 0 0.21 0.72 0.072 0.01 0 0.21 0.72 0.072 0.01 0 0 0 0 1 0 "
         id="feColorMatrix7" />
    </filter>
  </defs>
  <path
     d="M4.96.29H.847c-.276 0-.5.226-.5.5v4.536c0 .276.226.5.5.5h2.71c-.03-1.348.43-3.964 1.404-5.54z"
     fill="#0f80cc"
     id="path3"
     style="filter:url(#filter7)" />
  <path
     d="M4.81.437H.847c-.196 0-.355.16-.355.355v4.205c.898-.345 2.245-.642 3.177-.628A28.93 28.93 0 0 1 4.811.437z"
     fill="url(#A)"
     id="path4"
     style="filter:url(#filter6)" />
  <path
     d="M5.92.142c-.282-.25-.623-.15-.96.148l-.15.146c-.576.61-1.1 1.742-1.276 2.607a2.38 2.38 0 0 1 .148.426l.022.1.022.102s-.005-.02-.026-.08l-.014-.04a.461.461 0 0 0-.009-.022c-.038-.087-.14-.272-.187-.352a8.789 8.789 0 0 0-.103.321c.132.242.212.656.212.656s-.007-.027-.04-.12c-.03-.083-.176-.34-.21-.4-.06.22-.083.368-.062.404.04.07.08.2.115.324a7.52 7.52 0 0 1 .132.666l.005.062a6.11 6.11 0 0 0 .015.75c.026.313.075.582.137.726l.042-.023c-.09-.284-.128-.655-.112-1.084.025-.655.175-1.445.454-2.268C4.548 1.938 5.2.94 5.798.464c-.545.492-1.282 2.084-1.502 2.673-.247.66-.422 1.28-.528 1.873.182-.556.77-.796.77-.796s.29-.356.626-.865l-.645.172-.208.092s.53-.323.987-.47c.627-.987 1.31-2.39.622-3.002"
     fill="#003b57"
     id="path5"
     style="filter:url(#filter5)" />
</svg>
