<?xml version="1.0" encoding="UTF-8" standalone="no"?>
<svg
   height="512px"
   style="enable-background:new 0 0 512 512;"
   version="1.1"
   viewBox="0 0 512 512"
   width="512px"
   xml:space="preserve"
   id="svg3"
   sodipodi:docname="swift.svg"
   inkscape:version="1.3.2 (091e20e, 2023-11-25)"
   xmlns:inkscape="http://www.inkscape.org/namespaces/inkscape"
   xmlns:sodipodi="http://sodipodi.sourceforge.net/DTD/sodipodi-0.dtd"
   xmlns="http://www.w3.org/2000/svg"
   xmlns:svg="http://www.w3.org/2000/svg"><defs
     id="defs3"><filter
       style="color-interpolation-filters:sRGB;"
       inkscape:label="Greyscale"
       id="filter3"><feColorMatrix
         values="0.21 0.72 0.072 0 0 0.21 0.72 0.072 0 0 0.21 0.72 0.072 0 0 0 0 0 1 0 "
         id="feColorMatrix3" /></filter><filter
       style="color-interpolation-filters:sRGB;"
       inkscape:label="Greyscale"
       id="filter4"
       x="0"
       y="0"
       width="1"
       height="1"><feColorMatrix
         values="0.21 0.72 0.072 0 0 0.21 0.72 0.072 0 0 0.21 0.72 0.072 0 0 0 0 0 1 0 "
         id="feColorMatrix4" /></filter></defs><sodipodi:namedview
     id="namedview3"
     pagecolor="#ffffff"
     bordercolor="#999999"
     borderopacity="1"
     inkscape:showpageshadow="2"
     inkscape:pageopacity="0"
     inkscape:pagecheckerboard="0"
     inkscape:deskcolor="#d1d1d1"
     inkscape:zoom="1.6894531"
     inkscape:cx="256"
     inkscape:cy="255.70405"
     inkscape:window-width="1392"
     inkscape:window-height="1027"
     inkscape:window-x="0"
     inkscape:window-y="25"
     inkscape:window-maximized="0"
     inkscape:current-layer="svg3" /><g
     id="_x32_3-swift"
     style="filter:url(#filter4)"><g
       id="g3"><g
         id="g2"><g
           id="g1"><path
             d="M311.531,46.662c209.789,140.375,141.76,294.632,141.76,294.632s59.588,66.121,35.635,124.045      c0,0-24.723-40.463-65.76-40.463c-39.672,0-63.143,40.463-143.225,40.463c-178.114,0-262.545-146.357-262.545-146.357      c160.513,104.071,270.182,30.322,270.182,30.322c-72.473-41.207-226.19-238.561-226.19-238.561      C195.391,222.926,253.219,252.38,253.219,252.38C218.447,224.392,121.542,87.208,121.542,87.208      c77.545,77.128,231.684,184.673,231.684,184.673C397.426,153.034,311.531,46.662,311.531,46.662L311.531,46.662z       M311.531,46.662"
             style="fill:#FF5722;"
             id="path1" /></g></g></g></g><g
     id="Layer_1"
     style="filter:url(#filter3)" /></svg>
