<svg width="128" height="128" viewBox="0 0 128 128" fill="none" xmlns="http://www.w3.org/2000/svg">
<g clip-path="url(#clip0_1_2)">
<rect width="128" height="128" rx="16" fill="black"/>
<mask id="path-2-outside-1_1_2" maskUnits="userSpaceOnUse" x="14" y="31" width="103" height="67" fill="black">
<rect fill="white" x="14" y="31" width="103" height="67"/>
<path d="M38.0352 71.1699H23.1211V97H15.3047V32.1777H37.0469C49.8945 32.1777 57.9355 39.6348 57.9355 51.6738C57.9355 60.1641 53.2188 67.127 45.8516 69.5527L59.0586 97H50.1191L38.0352 71.1699ZM23.1211 39.2305V64.4766H35.9688C44.9082 64.4766 49.9395 59.9395 49.9395 51.8535C49.9395 43.8125 44.998 39.2305 36.3281 39.2305H23.1211ZM115.93 61.1074V97H109.057V63.3535C109.057 57.4238 106.9 54.3242 102.812 54.3242C98.5449 54.3242 95.9395 58.0527 95.9395 64.1172V97H89.1113V63.3086C89.1113 57.4238 86.9551 54.3242 82.8223 54.3242C78.5098 54.3242 75.8145 58.0527 75.8145 64.1172V97H68.9414V48.2598H75.7695V55.1328H76.5781C77.791 50.2363 81.2949 47.3613 85.877 47.3613C90.459 47.3613 93.6934 50.1914 94.7266 54.998H95.5352C96.793 50.3262 100.701 47.3613 105.598 47.3613C112.381 47.3613 115.93 52.0781 115.93 61.1074Z"/>
</mask>
<path d="M38.0352 71.1699H23.1211V97H15.3047V32.1777H37.0469C49.8945 32.1777 57.9355 39.6348 57.9355 51.6738C57.9355 60.1641 53.2188 67.127 45.8516 69.5527L59.0586 97H50.1191L38.0352 71.1699ZM23.1211 39.2305V64.4766H35.9688C44.9082 64.4766 49.9395 59.9395 49.9395 51.8535C49.9395 43.8125 44.998 39.2305 36.3281 39.2305H23.1211ZM115.93 61.1074V97H109.057V63.3535C109.057 57.4238 106.9 54.3242 102.812 54.3242C98.5449 54.3242 95.9395 58.0527 95.9395 64.1172V97H89.1113V63.3086C89.1113 57.4238 86.9551 54.3242 82.8223 54.3242C78.5098 54.3242 75.8145 58.0527 75.8145 64.1172V97H68.9414V48.2598H75.7695V55.1328H76.5781C77.791 50.2363 81.2949 47.3613 85.877 47.3613C90.459 47.3613 93.6934 50.1914 94.7266 54.998H95.5352C96.793 50.3262 100.701 47.3613 105.598 47.3613C112.381 47.3613 115.93 52.0781 115.93 61.1074Z" fill="white"/>
<path d="M38.0352 71.1699L38.9409 70.7462L38.6714 70.1699H38.0352V71.1699ZM23.1211 71.1699V70.1699H22.1211V71.1699H23.1211ZM23.1211 97V98H24.1211V97H23.1211ZM15.3047 97H14.3047V98H15.3047V97ZM15.3047 32.1777V31.1777H14.3047V32.1777H15.3047ZM45.8516 69.5527L45.5388 68.6029L44.4563 68.9593L44.9505 69.9863L45.8516 69.5527ZM59.0586 97V98H60.6495L59.9597 96.5664L59.0586 97ZM50.1191 97L49.2134 97.4237L49.4829 98H50.1191V97ZM23.1211 39.2305V38.2305H22.1211V39.2305H23.1211ZM23.1211 64.4766H22.1211V65.4766H23.1211V64.4766ZM38.0352 70.1699H23.1211V72.1699H38.0352V70.1699ZM22.1211 71.1699V97H24.1211V71.1699H22.1211ZM23.1211 96H15.3047V98H23.1211V96ZM16.3047 97V32.1777H14.3047V97H16.3047ZM15.3047 33.1777H37.0469V31.1777H15.3047V33.1777ZM37.0469 33.1777C43.2803 33.1777 48.2375 34.9845 51.6274 38.1428C55.0091 41.2934 56.9355 45.8856 56.9355 51.6738H58.9355C58.9355 45.423 56.8415 40.2671 52.9908 36.6795C49.1483 33.0995 43.6611 31.1777 37.0469 31.1777V33.1777ZM56.9355 51.6738C56.9355 59.7856 52.4474 66.3281 45.5388 68.6029L46.1643 70.5026C53.9901 67.9258 58.9355 60.5425 58.9355 51.6738H56.9355ZM44.9505 69.9863L58.1575 97.4336L59.9597 96.5664L46.7527 69.1191L44.9505 69.9863ZM59.0586 96H50.1191V98H59.0586V96ZM51.0249 96.5763L38.9409 70.7462L37.1294 71.5937L49.2134 97.4237L51.0249 96.5763ZM22.1211 39.2305V64.4766H24.1211V39.2305H22.1211ZM23.1211 65.4766H35.9688V63.4766H23.1211V65.4766ZM35.9688 65.4766C40.5965 65.4766 44.3605 64.302 46.9766 61.9394C49.6082 59.5629 50.9395 56.1101 50.9395 51.8535H48.9395C48.9395 55.6828 47.7551 58.5416 45.6362 60.4551C43.5018 62.3826 40.2805 63.4766 35.9688 63.4766V65.4766ZM50.9395 51.8535C50.9395 47.6238 49.6338 44.1756 47.065 41.7934C44.5072 39.4214 40.8308 38.2305 36.3281 38.2305V40.2305C40.4954 40.2305 43.6246 41.3306 45.705 43.2598C47.7744 45.1789 48.9395 48.0423 48.9395 51.8535H50.9395ZM36.3281 38.2305H23.1211V40.2305H36.3281V38.2305ZM115.93 97V98H116.93V97H115.93ZM109.057 97H108.057V98H109.057V97ZM95.9395 97V98H96.9395V97H95.9395ZM89.1113 97H88.1113V98H89.1113V97ZM75.8145 97V98H76.8145V97H75.8145ZM68.9414 97H67.9414V98H68.9414V97ZM68.9414 48.2598V47.2598H67.9414V48.2598H68.9414ZM75.7695 48.2598H76.7695V47.2598H75.7695V48.2598ZM75.7695 55.1328H74.7695V56.1328H75.7695V55.1328ZM76.5781 55.1328V56.1328H77.3606L77.5488 55.3733L76.5781 55.1328ZM94.7266 54.998L93.7489 55.2082L93.9187 55.998H94.7266V54.998ZM95.5352 54.998V55.998H96.3015L96.5008 55.258L95.5352 54.998ZM114.93 61.1074V97H116.93V61.1074H114.93ZM115.93 96H109.057V98H115.93V96ZM110.057 97V63.3535H108.057V97H110.057ZM110.057 63.3535C110.057 60.2948 109.505 57.8011 108.29 56.0459C107.032 54.2307 105.147 53.3242 102.812 53.3242V55.3242C104.566 55.3242 105.803 55.9676 106.645 57.1846C107.53 58.4616 108.057 60.4825 108.057 63.3535H110.057ZM102.812 53.3242C100.346 53.3242 98.3247 54.4211 96.9568 56.3725C95.6154 58.2861 94.9395 60.9592 94.9395 64.1172H96.9395C96.9395 61.2107 97.5663 58.9873 98.5945 57.5205C99.5962 56.0916 101.012 55.3242 102.812 55.3242V53.3242ZM94.9395 64.1172V97H96.9395V64.1172H94.9395ZM95.9395 96H89.1113V98H95.9395V96ZM90.1113 97V63.3086H88.1113V97H90.1113ZM90.1113 63.3086C90.1113 60.2713 89.5596 57.7872 88.3363 56.0368C87.0716 54.2272 85.175 53.3242 82.8223 53.3242V55.3242C84.6024 55.3242 85.8503 55.971 86.6969 57.1825C87.5849 58.4531 88.1113 60.4611 88.1113 63.3086H90.1113ZM82.8223 53.3242C80.3392 53.3242 78.2867 54.4154 76.8887 56.3635C75.5155 58.2771 74.8145 60.9529 74.8145 64.1172H76.8145C76.8145 61.217 77.4611 58.9963 78.5136 57.5296C79.5414 56.0973 80.9928 55.3242 82.8223 55.3242V53.3242ZM74.8145 64.1172V97H76.8145V64.1172H74.8145ZM75.8145 96H68.9414V98H75.8145V96ZM69.9414 97V48.2598H67.9414V97H69.9414ZM68.9414 49.2598H75.7695V47.2598H68.9414V49.2598ZM74.7695 48.2598V55.1328H76.7695V48.2598H74.7695ZM75.7695 56.1328H76.5781V54.1328H75.7695V56.1328ZM77.5488 55.3733C78.6635 50.8732 81.8039 48.3613 85.877 48.3613V46.3613C80.7859 46.3613 76.9186 49.5994 75.6075 54.8924L77.5488 55.3733ZM85.877 48.3613C87.9527 48.3613 89.6674 48.998 90.9779 50.1331C92.2943 51.2734 93.2688 52.9746 93.7489 55.2082L95.7042 54.7879C95.1511 52.2148 93.9918 50.0977 92.2873 48.6213C90.5768 47.1397 88.3832 46.3613 85.877 46.3613V48.3613ZM94.7266 55.998H95.5352V53.998H94.7266V55.998ZM96.5008 55.258C97.639 51.0305 101.145 48.3613 105.598 48.3613V46.3613C100.257 46.3613 95.947 49.6219 94.5695 54.7381L96.5008 55.258ZM105.598 48.3613C108.733 48.3613 110.994 49.4356 112.508 51.4493C114.059 53.5123 114.93 56.6984 114.93 61.1074H116.93C116.93 56.4871 116.026 52.8002 114.107 50.2475C112.15 47.6454 109.246 46.3613 105.598 46.3613V48.3613Z" fill="white" mask="url(#path-2-outside-1_1_2)"/>
</g>
<defs>
<clipPath id="clip0_1_2">
<rect width="128" height="128" rx="16" fill="white"/>
</clipPath>
</defs>
</svg>
